<?xml version="1.0" encoding="UTF-8"?>
<svg id="Layer_2" data-name="Layer 2" xmlns="http://www.w3.org/2000/svg" viewBox="0 0 1801.42 1801.42">
  <defs>
    <style>
      .cls-1 {
        fill: #231f20;
      }

      .cls-2 {
        fill: #fff;
      }
    </style>
  </defs>
  <g id="Layer_1-2" data-name="Layer 1">
    <g>
      <circle class="cls-1" cx="905.02" cy="907.87" r="880.24"/>
      <g>
        <path class="cls-2" d="M940.6,0c-.72,3.89,1.97,2.49,4.45,2.57,451.2,14.87,836.21,395.93,853.8,847.37.1,2.47-1.32,5.16,2.57,4.45v93.93c-3.88-.72-2.5,1.97-2.57,4.45-6.27,207-103.52,418.64-244.44,567.54-151.69,160.28-375.09,270.17-597.78,278.54-2.47.09-5.16-1.32-4.45,2.57h-102.94c.72-3.88-1.97-2.5-4.45-2.57-49.31-1.5-101.99-10.06-149.98-21.21-193.67-45.03-371.04-156.51-494.31-311.87l-80.84,19.11c2.92-10,42.98-63.92,42.3-68.53-.46-3.07-23.55-35.96-27.39-42.22C57.05,1247.73,8.39,1100.66,2.57,951.48c-.1-2.47,1.32-5.16-2.57-4.45v-92.64c3.89.72,2.48-1.97,2.57-4.45C19.53,398.7,405.77,17.42,856.37,2.57c2.47-.08,5.16,1.31,4.45-2.57h79.78ZM962.69,769.25c38.23,18.92,79.87,4.75,115.16-13.72,45.5-23.82,87.69-61.24,116.25-103.78l235.27-357.98c.35-2.19-16.82-15.9-19.81-18.39-106.61-88.6-245.13-149.72-382.34-170.95C508.9,24.24,58.97,443.21,96.52,964.39c9.33,129.46,53.31,256.3,120.96,366.08,1.91,1.33,5.75-4.97,6.94-6.54,19.46-25.75,34.81-54.96,54.7-80.49.39-2.14-6.76-6.4-8.88-8.86-2.6-3.01-6.61-9.76-8.45-13.43-1.98-3.95-11.09-25.72-9.06-28.45,2.54-3.43,53.54-6.32,61.75-7.75,2.32-.4,4.69-.83,6.49-2.52l120.36-170.45c1.13-3.63-6.08-.64-8.29-.56-9.85.34-37.47,1.46-44.92-2.8-8.08-4.62-16.5-28.87-14.79-38.25,36.69-6.83,73.83-11.49,110.92-15.83l32.54-39.51c6.78-4.26,10.31,1.01,14.67,5.58,7.12,7.46,13.43,17.76,19.52,26.15l1.66.41c79.25-9.5,158.9-15.91,238.69-19.44,2.43,2.3-11.76,22.32-14.19,25.05-10.38,11.68-21.01,13.83-35.76,17-36.1,7.77-76.26,12.58-113.04,18.21-8.7,1.33-60.66,7.15-63.46,9.88-4.93,12.96-11.57,24.78-18.78,36.55-25.43,41.49-57.03,82.15-84.71,122.46-1.07,1.56-9.21,13.39-8.47,14.04l161.46-16.73c1.62,1-.42,4.16-1.01,5.43-20.18,43.49-56.64,44.58-98.67,53.16-35.41,7.22-71.63,12.16-106.8,19.3l-131,177.77c-.47,2.71,22.35,28.42,26.09,32.6,212.04,236.38,549.6,324.18,852.18,224.22,154.47-51.03,290.16-150.41,388.87-278.95l-1.9-1.9c-41.59,38.34-113.38,87.58-170.41,54.57-19.39-11.22-40.81-34.18-41.32-57.87-.21-9.87,4.13-19.47,5.12-28.33.65-5.91-4.03,1.72-4.35,2.05-48.7,51.17-131.55,106.42-205.63,93.58-39.02-6.77-77.96-49.38-82.67-88.45-46.94,49.21-118.68,102.13-190.49,96.54-35.44-2.76-70.85-40.81-86.14-70.84l-6.44-19.27c-38.2,53.05-115.59,145.73-185.96,86.86-49.49-41.4-3.9-120.82,22.64-163.96,31.86-51.79,67.61-103.91,101.37-154.68,50.05-75.26,100.92-150.06,153.51-223.56,4.09-1.4,20.8,7.73,25.26,10.38,43.79,26.02,20.44,62.22,1.12,97.12-32.44,58.58-73.3,116.78-110.07,173.01-32.73,50.06-71.8,101.12-100.11,153.37-12.56,23.19-26.04,49.89-25.52,76.79,28.82,3.22,55.71-18.47,75.94-36.66,9.05-8.14,38.85-37.31,43.58-46.49,2.35-4.57,4.51-17.43,6.91-23.97,23.63-64.28,103.56-136.2,171.83-147.28,38.14-6.19,67.99,16.7,90.12,45.52,25.26,32.91,2.87,61.31-23.64,82.72-44.66,36.08-99.85,55.08-153.08,74.67-1.86,8.06-4.93,29.32.09,35.97,1.63,2.16,10.46,5.26,13.37,5.93,51.99,11.92,134.38-35.64,171.22-70.82,12.13-11.58,10.04-17.45,16.09-31.52,27.33-63.57,115.46-140.49,186.56-144.11,35-1.79,41.55,16.39,60.42,38.63,2.27,2.68,6.62,4.94,9.66,8.35,35.16,39.51,2.92,68.02-30.44,91.72-42.39,30.13-93.52,48.44-142.94,63.58-2.81,11.61-3.37,23.65-2.68,35.56,67.43,21.36,141.68-18.41,190.27-63.49,41.7-38.69,67.43-88.64,99.05-135.15.36-2.72-.21-1.62-1.92-1.88-8.66-1.33-14.24-.75-21.86-6.47-4.22-3.16-20.39-24.6-17.31-28.24,2.37-2.81,64.34-7.04,72.74-10.26,29.34-40.11,56.68-83.33,87.5-122.23,5.23-6.6,24.99-32.02,33.06-30.78,2.87.44,6.61,4.73,8.68,6.85,7.11,7.27,23.94,23.22,28.84,30.35,12.99,18.94-4.85,44.9-13.68,62.07l-26.76,43.35,100.47-18.86c33.87-115.41,41.49-238.42,22.84-357.29-24.65-157.13-97.47-304.13-205.03-420.32-2.54-.45-1.57.41-2.19,1.62-3.82,7.55-6.44,16.17-10.64,24.13-21.17,40.19-55.58,82.02-80.98,121.03-27.88,42.84-53.9,86.89-80.51,130.52-.88,2.88,2.1,2.11,3.81,1.23,13.7-6.96,33.3-24.38,47.47-33.59,12.7-8.26,25.85-16.68,39.19-23.86,29.99-16.14,55.49-30.12,83.27-.48,20.76,22.16-1.91,55.76-13.99,77.48-15.78,28.38-34.99,55.09-49.79,84.03-7.94,15.52-16.36,32.63-17.34,50.21,40.58-6.37,75.62-29.9,106.78-55.33,2.29,13.67-12.57,26.57-21.84,35.4-41.55,39.61-121.19,91.68-164.47,25.47-22.33-34.16.73-65.44,19.29-94.73,21.43-33.81,48.18-65.32,63.47-102.51-33.24,22.14-64.8,47.31-93.98,74.57-15.07,14.08-40.56,37.32-52.76,52.76-17.34,21.93-28.98,55.59-45.61,79.2-13.98,19.86-20.12,15.99-42.22,8.7-26.11-8.62-52.88-20.69-44.41-52.86,2.12-8.07,7.49-15.15,8.74-23.44-24.28,25.03-50.53,49.24-80.52,67.47-35.94,21.84-87.96,40.81-124.73,10.41-24.3-20.09-44.44-50.83-46.32-83.01-50.07,48.67-127.23,102.64-201.01,91.01-36.25-5.71-80.8-46.97-84.47-84.09-8.36-84.52,114.55-192.42,193.52-198.62,36.39-2.86,42.14,11.93,62.42,35.33,19.07,21.99,40.08,36.98,18.53,68.79-26.53,39.16-103.9,72.24-147.83,87.64-4.58,1.61-31.2,8.89-32.23,10.23-2.77,3.58-4.82,32.61-1.95,35.43,6.33,6.23,41.44,6.39,50.85,5.74,43-2.97,96.9-32.05,128.65-60.5,16.33-14.63,13.05-14.99,20.29-33.75,23.81-61.77,98.39-123.63,160.21-144.74,35.36-12.07,58.47-12.52,88.43,11.29,5.96,4.74,24.57,21.11,19.37,29.58-1.13,1.84-34.89,12.44-40.55,14.79-54.18,22.51-118.65,71.06-147.38,122.84-8.58,15.46-16.01,33.42-15.83,51.29ZM851.81,585.46c-63.5,14.86-116.43,68.61-142.84,126.73,2.87.7,7.08-1.87,9.88-2.98,34.59-13.74,132.95-61.81,132.95-105.09v-18.66ZM1668.88,1146.48c-.67-.71-10.89,7.28-12.84,8.38-31.37,17.75-72.5,19.4-106.22,31.46-33.67,52.33-71.07,104.27-101.19,158.73-10.31,18.64-20.63,37.86-25.51,58.76,53.79-.55,105.38-27.98,144.77-63.03,3.96-1.68.12,8.08-.08,8.93-.22.92-1.74,5.1.72,3.29,43.05-63.55,77.43-133.12,100.35-206.53ZM1002.35,1212.09c-26.25,5.1-49.24,20.97-68.86,38.58-28.7,25.75-54.43,59.97-70.09,95.25,33.23-14.04,69.03-28.91,98.21-50.39,26.57-19.56,52.27-47.72,40.74-83.43ZM1289.3,1217.24c-63.57,15.67-115.94,68.44-142.84,126.73.51,1.66,2.58.14,3.63-.23,34.7-12.06,139.21-64.22,139.21-106.56v-19.94ZM1336.27,1349.78v1.29c.84-.43.84-.86,0-1.29ZM1548.58,1379.37v1.29c.84-.43.84-.86,0-1.29Z"/>
        <path class="cls-2" d="M1336.27,1349.78c.84.43.84.86,0,1.29v-1.29Z"/>
        <path class="cls-2" d="M1548.58,1379.37c.84.43.84.86,0,1.29v-1.29Z"/>
        <path class="cls-2" d="M724.64,360.5c-78.76,123.77-161.17,245.69-247.5,364.34-16.3,22.4-64.73,94.64-84.28,106.16-13.84,8.15-27.47,5.06-42.22,6.68-19.17,2.11-38.07,6.63-57.27,7.7l38.06-62.93c86.42-134.9,176.12-267.66,266.87-399.66.3-2.22.07-1.99-1.94-1.96-3.24.06-7.85,1.07-11.34,1.55-54.5,7.49-108.56,18.8-162.98,26.8,15.37-37.91,22.66-68.38,66.89-79.14,19.18-4.67,42.76-7.05,62.58-9.48,31.07-3.81,62.43-5.66,93.52-9.42,4.75-1.44,16-25.82,20.93-30.53,6.07-5.79,14.68.47,20.72,3.54,7.78,3.96,28.69,19.76,34.59,20.74,8.6,1.43,28.59-.75,38.59-1.17,27.87-1.16,58.78-7.22,85.49,3.19,6.01,2.34,42.33,24.17,42.46,28.28-2.37,2.39-6.6,2.48-9.81,3.03-50.8,8.76-102.55,13.49-153.37,22.27Z"/>
        <path class="cls-2" d="M1570.45,1338.2c.84.43.84.86,0,1.29v-1.29Z"/>
      </g>
    </g>
  </g>
</svg>